<mxfile host="app.diagrams.net" modified="2023-10-11T02:42:37.147Z" agent="Mozilla/5.0 (Windows NT 10.0; Win64; x64) AppleWebKit/537.36 (KHTML, like Gecko) Chrome/117.0.0.0 Safari/537.36" etag="QJC4CRo9OnSCCANwxlf_" version="22.0.4" type="device">
  <diagram name="PÃ¡gina-1" id="r6WIB4VZ9UE2OEqXsE7D">
    <mxGraphModel dx="2140" dy="1912" grid="1" gridSize="10" guides="1" tooltips="1" connect="1" arrows="1" fold="1" page="1" pageScale="1" pageWidth="827" pageHeight="1169" background="none" math="0" shadow="0">
      <root>
        <mxCell id="0" />
        <mxCell id="1" parent="0" />
        <mxCell id="bWvuNppjGwyr0iCQvfWT-6" value="Despesa" style="swimlane;fontStyle=1;align=center;verticalAlign=top;childLayout=stackLayout;horizontal=1;startSize=26;horizontalStack=0;resizeParent=1;resizeParentMax=0;resizeLast=0;collapsible=1;marginBottom=0;whiteSpace=wrap;html=1;fillColor=#ffe6cc;strokeColor=#d79b00;" vertex="1" parent="1">
          <mxGeometry x="310" y="140" width="190" height="272" as="geometry" />
        </mxCell>
        <mxCell id="bWvuNppjGwyr0iCQvfWT-7" value="- valor : double&lt;br data-darkreader-inline-border=&quot;&quot; style=&quot;border-color: var(--darkreader-border--border-color); text-align: -webkit-center; --darkreader-inline-border: var(--darkreader-border--darkreader-border--border-color);&quot;&gt;&lt;span style=&quot;text-align: -webkit-center;&quot;&gt;- data : Date&lt;/span&gt;&lt;br data-darkreader-inline-border=&quot;&quot; style=&quot;border-color: var(--darkreader-border--border-color); text-align: -webkit-center; --darkreader-inline-border: var(--darkreader-border--darkreader-border--border-color);&quot;&gt;&lt;span style=&quot;text-align: -webkit-center;&quot;&gt;- descricao : string&lt;/span&gt;&lt;br data-darkreader-inline-border=&quot;&quot; style=&quot;border-color: var(--darkreader-border--border-color); text-align: -webkit-center; --darkreader-inline-border: var(--darkreader-border--darkreader-border--border-color);&quot;&gt;&lt;span style=&quot;text-align: -webkit-center;&quot;&gt;- categoria : string&lt;/span&gt;&lt;br data-darkreader-inline-border=&quot;&quot; style=&quot;border-color: var(--darkreader-border--border-color); text-align: -webkit-center; --darkreader-inline-border: var(--darkreader-border--darkreader-border--border-color);&quot;&gt;&lt;span style=&quot;text-align: -webkit-center;&quot;&gt;- formaPagamento : string&lt;/span&gt;&lt;br data-darkreader-inline-border=&quot;&quot; style=&quot;border-color: var(--darkreader-border--border-color); text-align: -webkit-center; --darkreader-inline-border: var(--darkreader-border--darkreader-border--border-color);&quot;&gt;&lt;span style=&quot;text-align: -webkit-center;&quot;&gt;- numParcelas : int&lt;/span&gt;&lt;br data-darkreader-inline-border=&quot;&quot; style=&quot;border-color: var(--darkreader-border--border-color); text-align: -webkit-center; --darkreader-inline-border: var(--darkreader-border--darkreader-border--border-color);&quot;&gt;&lt;span style=&quot;text-align: -webkit-center;&quot;&gt;- estado : boolean&lt;/span&gt;" style="text;strokeColor=#d79b00;fillColor=#ffe6cc;align=left;verticalAlign=top;spacingLeft=4;spacingRight=4;overflow=hidden;rotatable=0;points=[[0,0.5],[1,0.5]];portConstraint=eastwest;whiteSpace=wrap;html=1;" vertex="1" parent="bWvuNppjGwyr0iCQvfWT-6">
          <mxGeometry y="26" width="190" height="114" as="geometry" />
        </mxCell>
        <mxCell id="bWvuNppjGwyr0iCQvfWT-9" value="+ getDados(): string&lt;br data-darkreader-inline-border=&quot;&quot; style=&quot;border-color: var(--darkreader-border--border-color); text-align: -webkit-center; --darkreader-inline-border: var(--darkreader-border--darkreader-border--border-color);&quot;&gt;&lt;span style=&quot;text-align: -webkit-center;&quot;&gt;+ setDados(): void&lt;/span&gt;&lt;br data-darkreader-inline-border=&quot;&quot; style=&quot;border-color: var(--darkreader-border--border-color); text-align: -webkit-center; --darkreader-inline-border: var(--darkreader-border--darkreader-border--border-color);&quot;&gt;&lt;span style=&quot;text-align: -webkit-center;&quot;&gt;+ isEstado(): boolean&lt;/span&gt;&lt;br data-darkreader-inline-border=&quot;&quot; style=&quot;border-color: var(--darkreader-border--border-color); text-align: -webkit-center; --darkreader-inline-border: var(--darkreader-border--darkreader-border--border-color);&quot;&gt;&lt;span style=&quot;text-align: -webkit-center;&quot;&gt;+ setEstado(estado: boolean): void&lt;/span&gt;&lt;br data-darkreader-inline-border=&quot;&quot; style=&quot;border-color: var(--darkreader-border--border-color); text-align: -webkit-center; --darkreader-inline-border: var(--darkreader-border--darkreader-border--border-color);&quot;&gt;&lt;span style=&quot;text-align: -webkit-center;&quot;&gt;+ getValor(): double&lt;/span&gt;&lt;br data-darkreader-inline-border=&quot;&quot; style=&quot;border-color: var(--darkreader-border--border-color); text-align: -webkit-center; --darkreader-inline-border: var(--darkreader-border--darkreader-border--border-color);&quot;&gt;&lt;span style=&quot;text-align: -webkit-center;&quot;&gt;+ setValor(valor: double) void&lt;/span&gt;" style="text;strokeColor=#d79b00;fillColor=#ffe6cc;align=left;verticalAlign=top;spacingLeft=4;spacingRight=4;overflow=hidden;rotatable=0;points=[[0,0.5],[1,0.5]];portConstraint=eastwest;whiteSpace=wrap;html=1;" vertex="1" parent="bWvuNppjGwyr0iCQvfWT-6">
          <mxGeometry y="140" width="190" height="132" as="geometry" />
        </mxCell>
        <mxCell id="bWvuNppjGwyr0iCQvfWT-10" value="ContaUser" style="swimlane;fontStyle=1;align=center;verticalAlign=top;childLayout=stackLayout;horizontal=1;startSize=26;horizontalStack=0;resizeParent=1;resizeParentMax=0;resizeLast=0;collapsible=1;marginBottom=0;whiteSpace=wrap;html=1;fillColor=#ffe6cc;strokeColor=#d79b00;" vertex="1" parent="1">
          <mxGeometry x="310" y="-150" width="190" height="180" as="geometry" />
        </mxCell>
        <mxCell id="bWvuNppjGwyr0iCQvfWT-11" value="- nome : string&lt;br data-darkreader-inline-border=&quot;&quot; style=&quot;border-color: var(--darkreader-border--border-color); text-align: -webkit-center; --darkreader-inline-border: var(--darkreader-border--darkreader-border--border-color);&quot;&gt;&lt;span style=&quot;text-align: -webkit-center;&quot;&gt;- email : string&lt;/span&gt;&lt;br data-darkreader-inline-border=&quot;&quot; style=&quot;border-color: var(--darkreader-border--border-color); text-align: -webkit-center; --darkreader-inline-border: var(--darkreader-border--darkreader-border--border-color);&quot;&gt;&lt;span style=&quot;text-align: -webkit-center;&quot;&gt;- avatar : string&lt;/span&gt;" style="text;strokeColor=#d79b00;fillColor=#ffe6cc;align=left;verticalAlign=top;spacingLeft=4;spacingRight=4;overflow=hidden;rotatable=0;points=[[0,0.5],[1,0.5]];portConstraint=eastwest;whiteSpace=wrap;html=1;" vertex="1" parent="bWvuNppjGwyr0iCQvfWT-10">
          <mxGeometry y="26" width="190" height="56" as="geometry" />
        </mxCell>
        <mxCell id="bWvuNppjGwyr0iCQvfWT-13" value="+ getNome(): string&lt;br data-darkreader-inline-border=&quot;&quot; style=&quot;border-color: var(--darkreader-border--border-color); text-align: -webkit-center; --darkreader-inline-border: var(--darkreader-border--darkreader-border--border-color);&quot;&gt;&lt;span style=&quot;text-align: -webkit-center;&quot;&gt;+ getEmail(): string&lt;/span&gt;&lt;br data-darkreader-inline-border=&quot;&quot; style=&quot;border-color: var(--darkreader-border--border-color); text-align: -webkit-center; --darkreader-inline-border: var(--darkreader-border--darkreader-border--border-color);&quot;&gt;&lt;span style=&quot;text-align: -webkit-center;&quot;&gt;+getAvatar(): string&lt;/span&gt;&lt;br data-darkreader-inline-border=&quot;&quot; style=&quot;border-color: var(--darkreader-border--border-color); text-align: -webkit-center; --darkreader-inline-border: var(--darkreader-border--darkreader-border--border-color);&quot;&gt;&lt;span style=&quot;text-align: -webkit-center;&quot;&gt;+ setNome(nome: string): void&lt;/span&gt;&lt;br data-darkreader-inline-border=&quot;&quot; style=&quot;border-color: var(--darkreader-border--border-color); text-align: -webkit-center; --darkreader-inline-border: var(--darkreader-border--darkreader-border--border-color);&quot;&gt;&lt;span style=&quot;text-align: -webkit-center;&quot;&gt;+ setEmail(email: string): void&lt;/span&gt;&lt;br data-darkreader-inline-border=&quot;&quot; style=&quot;border-color: var(--darkreader-border--border-color); text-align: -webkit-center; --darkreader-inline-border: var(--darkreader-border--darkreader-border--border-color);&quot;&gt;&lt;span style=&quot;text-align: -webkit-center;&quot;&gt;+ setAvatar(avatar: string): void&lt;/span&gt;" style="text;strokeColor=#d79b00;fillColor=#ffe6cc;align=left;verticalAlign=top;spacingLeft=4;spacingRight=4;overflow=hidden;rotatable=0;points=[[0,0.5],[1,0.5]];portConstraint=eastwest;whiteSpace=wrap;html=1;" vertex="1" parent="bWvuNppjGwyr0iCQvfWT-10">
          <mxGeometry y="82" width="190" height="98" as="geometry" />
        </mxCell>
        <mxCell id="bWvuNppjGwyr0iCQvfWT-14" value="Receita" style="swimlane;fontStyle=1;align=center;verticalAlign=top;childLayout=stackLayout;horizontal=1;startSize=26;horizontalStack=0;resizeParent=1;resizeParentMax=0;resizeLast=0;collapsible=1;marginBottom=0;whiteSpace=wrap;html=1;fillColor=#ffe6cc;strokeColor=#d79b00;" vertex="1" parent="1">
          <mxGeometry y="-110" width="170" height="140" as="geometry" />
        </mxCell>
        <mxCell id="bWvuNppjGwyr0iCQvfWT-15" value="- valor: double&lt;br data-darkreader-inline-border=&quot;&quot; style=&quot;border-color: var(--darkreader-border--border-color); text-align: -webkit-center; --darkreader-inline-border: var(--darkreader-border--darkreader-border--border-color);&quot;&gt;&lt;span style=&quot;text-align: -webkit-center;&quot;&gt;- data: Date&lt;/span&gt;" style="text;strokeColor=#d79b00;fillColor=#ffe6cc;align=left;verticalAlign=top;spacingLeft=4;spacingRight=4;overflow=hidden;rotatable=0;points=[[0,0.5],[1,0.5]];portConstraint=eastwest;whiteSpace=wrap;html=1;" vertex="1" parent="bWvuNppjGwyr0iCQvfWT-14">
          <mxGeometry y="26" width="170" height="44" as="geometry" />
        </mxCell>
        <mxCell id="bWvuNppjGwyr0iCQvfWT-17" value="+ getValor(): double&lt;br data-darkreader-inline-border=&quot;&quot; style=&quot;border-color: var(--darkreader-border--border-color); text-align: -webkit-center; --darkreader-inline-border: var(--darkreader-border--darkreader-border--border-color);&quot;&gt;&lt;span style=&quot;text-align: -webkit-center;&quot;&gt;+ getData(): Date&lt;/span&gt;&lt;br data-darkreader-inline-border=&quot;&quot; style=&quot;border-color: var(--darkreader-border--border-color); text-align: -webkit-center; --darkreader-inline-border: var(--darkreader-border--darkreader-border--border-color);&quot;&gt;&lt;span style=&quot;text-align: -webkit-center;&quot;&gt;+ setValor(valor: double): void&lt;/span&gt;&lt;br data-darkreader-inline-border=&quot;&quot; style=&quot;border-color: var(--darkreader-border--border-color); text-align: -webkit-center; --darkreader-inline-border: var(--darkreader-border--darkreader-border--border-color);&quot;&gt;&lt;span style=&quot;text-align: -webkit-center;&quot;&gt;+ setData(data: Date): void&lt;/span&gt;" style="text;strokeColor=#d79b00;fillColor=#ffe6cc;align=left;verticalAlign=top;spacingLeft=4;spacingRight=4;overflow=hidden;rotatable=0;points=[[0,0.5],[1,0.5]];portConstraint=eastwest;whiteSpace=wrap;html=1;" vertex="1" parent="bWvuNppjGwyr0iCQvfWT-14">
          <mxGeometry y="70" width="170" height="70" as="geometry" />
        </mxCell>
        <mxCell id="bWvuNppjGwyr0iCQvfWT-18" value="CartaoCredito" style="swimlane;fontStyle=1;align=center;verticalAlign=top;childLayout=stackLayout;horizontal=1;startSize=26;horizontalStack=0;resizeParent=1;resizeParentMax=0;resizeLast=0;collapsible=1;marginBottom=0;whiteSpace=wrap;html=1;fillColor=#ffe6cc;strokeColor=#d79b00;" vertex="1" parent="1">
          <mxGeometry x="-50" y="300" width="260" height="270" as="geometry" />
        </mxCell>
        <mxCell id="bWvuNppjGwyr0iCQvfWT-19" value="- numero: string&lt;br data-darkreader-inline-border=&quot;&quot; style=&quot;border-color: var(--darkreader-border--border-color); text-align: -webkit-center; --darkreader-inline-border: var(--darkreader-border--darkreader-border--border-color);&quot;&gt;&lt;span style=&quot;text-align: -webkit-center;&quot;&gt;- bandeira: string&lt;/span&gt;&lt;br data-darkreader-inline-border=&quot;&quot; style=&quot;border-color: var(--darkreader-border--border-color); text-align: -webkit-center; --darkreader-inline-border: var(--darkreader-border--darkreader-border--border-color);&quot;&gt;&lt;span style=&quot;text-align: -webkit-center;&quot;&gt;- limite: double&lt;/span&gt;&lt;br data-darkreader-inline-border=&quot;&quot; style=&quot;border-color: var(--darkreader-border--border-color); text-align: -webkit-center; --darkreader-inline-border: var(--darkreader-border--darkreader-border--border-color);&quot;&gt;&lt;span style=&quot;text-align: -webkit-center;&quot;&gt;- valorAtual: double&lt;/span&gt;&lt;br data-darkreader-inline-border=&quot;&quot; style=&quot;border-color: var(--darkreader-border--border-color); text-align: -webkit-center; --darkreader-inline-border: var(--darkreader-border--darkreader-border--border-color);&quot;&gt;&lt;span style=&quot;text-align: -webkit-center;&quot;&gt;- diaFechamento: int&lt;/span&gt;" style="text;strokeColor=#d79b00;fillColor=#ffe6cc;align=left;verticalAlign=top;spacingLeft=4;spacingRight=4;overflow=hidden;rotatable=0;points=[[0,0.5],[1,0.5]];portConstraint=eastwest;whiteSpace=wrap;html=1;" vertex="1" parent="bWvuNppjGwyr0iCQvfWT-18">
          <mxGeometry y="26" width="260" height="84" as="geometry" />
        </mxCell>
        <mxCell id="bWvuNppjGwyr0iCQvfWT-21" value="+ getNumero(): string&lt;br data-darkreader-inline-border=&quot;&quot; style=&quot;border-color: var(--darkreader-border--border-color); text-align: -webkit-center; --darkreader-inline-border: var(--darkreader-border--darkreader-border--border-color);&quot;&gt;&lt;span style=&quot;text-align: -webkit-center;&quot;&gt;+ getLimite(): double&lt;/span&gt;&lt;br data-darkreader-inline-border=&quot;&quot; style=&quot;border-color: var(--darkreader-border--border-color); text-align: -webkit-center; --darkreader-inline-border: var(--darkreader-border--darkreader-border--border-color);&quot;&gt;&lt;span style=&quot;text-align: -webkit-center;&quot;&gt;+ getDiaFechamento(): int&lt;/span&gt;&lt;br data-darkreader-inline-border=&quot;&quot; style=&quot;border-color: var(--darkreader-border--border-color); text-align: -webkit-center; --darkreader-inline-border: var(--darkreader-border--darkreader-border--border-color);&quot;&gt;&lt;span style=&quot;text-align: -webkit-center;&quot;&gt;+ setNumero(numero: string): void&lt;/span&gt;&lt;br data-darkreader-inline-border=&quot;&quot; style=&quot;border-color: var(--darkreader-border--border-color); text-align: -webkit-center; --darkreader-inline-border: var(--darkreader-border--darkreader-border--border-color);&quot;&gt;&lt;span style=&quot;text-align: -webkit-center;&quot;&gt;+ setLimite(limite: double): void&lt;/span&gt;&lt;br data-darkreader-inline-border=&quot;&quot; style=&quot;border-color: var(--darkreader-border--border-color); text-align: -webkit-center; --darkreader-inline-border: var(--darkreader-border--darkreader-border--border-color);&quot;&gt;&lt;span style=&quot;text-align: -webkit-center;&quot;&gt;+ setDiaFechamento(diaFechamento: int): void&lt;/span&gt;&lt;br data-darkreader-inline-border=&quot;&quot; style=&quot;border-color: var(--darkreader-border--border-color); text-align: -webkit-center; --darkreader-inline-border: var(--darkreader-border--darkreader-border--border-color);&quot;&gt;&lt;span style=&quot;text-align: -webkit-center;&quot;&gt;+ getDados(): string&lt;/span&gt;&lt;br style=&quot;border-color: var(--darkreader-border--border-color); text-align: -webkit-center; --darkreader-inline-border: var(--darkreader-border--darkreader-border--border-color);&quot; data-darkreader-inline-border=&quot;&quot;&gt;&lt;span style=&quot;text-align: -webkit-center;&quot;&gt;+ setDados(): void&lt;/span&gt;&lt;br data-darkreader-inline-border=&quot;&quot; style=&quot;border-color: var(--darkreader-border--border-color); text-align: -webkit-center; --darkreader-inline-border: var(--darkreader-border--darkreader-border--border-color);&quot;&gt;&lt;span style=&quot;text-align: -webkit-center;&quot;&gt;+ verificarLimite(limite: double): boolean&lt;/span&gt;&lt;br style=&quot;border-color: var(--darkreader-border--border-color); text-align: -webkit-center; --darkreader-inline-border: var(--darkreader-border--darkreader-border--border-color);&quot; data-darkreader-inline-border=&quot;&quot;&gt;&lt;span style=&quot;text-align: -webkit-center;&quot;&gt;+ verificarDia(diaFechamento: int): boolean&lt;/span&gt;" style="text;strokeColor=#d79b00;fillColor=#ffe6cc;align=left;verticalAlign=top;spacingLeft=4;spacingRight=4;overflow=hidden;rotatable=0;points=[[0,0.5],[1,0.5]];portConstraint=eastwest;whiteSpace=wrap;html=1;" vertex="1" parent="bWvuNppjGwyr0iCQvfWT-18">
          <mxGeometry y="110" width="260" height="160" as="geometry" />
        </mxCell>
        <mxCell id="bWvuNppjGwyr0iCQvfWT-22" value="Categoria" style="swimlane;fontStyle=1;align=center;verticalAlign=top;childLayout=stackLayout;horizontal=1;startSize=26;horizontalStack=0;resizeParent=1;resizeParentMax=0;resizeLast=0;collapsible=1;marginBottom=0;whiteSpace=wrap;html=1;fillColor=#ffe6cc;strokeColor=#d79b00;" vertex="1" parent="1">
          <mxGeometry x="315" y="530" width="180" height="110" as="geometry" />
        </mxCell>
        <mxCell id="bWvuNppjGwyr0iCQvfWT-23" value="- nome: string" style="text;strokeColor=#d79b00;fillColor=#ffe6cc;align=left;verticalAlign=top;spacingLeft=4;spacingRight=4;overflow=hidden;rotatable=0;points=[[0,0.5],[1,0.5]];portConstraint=eastwest;whiteSpace=wrap;html=1;" vertex="1" parent="bWvuNppjGwyr0iCQvfWT-22">
          <mxGeometry y="26" width="180" height="26" as="geometry" />
        </mxCell>
        <mxCell id="bWvuNppjGwyr0iCQvfWT-25" value="+ getNome(): string&lt;br data-darkreader-inline-border=&quot;&quot; style=&quot;border-color: var(--darkreader-border--border-color); text-align: -webkit-center; --darkreader-inline-border: var(--darkreader-border--darkreader-border--border-color);&quot;&gt;&lt;span style=&quot;text-align: -webkit-center;&quot;&gt;+ setNome(nome: string): void&lt;/span&gt;" style="text;strokeColor=#d79b00;fillColor=#ffe6cc;align=left;verticalAlign=top;spacingLeft=4;spacingRight=4;overflow=hidden;rotatable=0;points=[[0,0.5],[1,0.5]];portConstraint=eastwest;whiteSpace=wrap;html=1;" vertex="1" parent="bWvuNppjGwyr0iCQvfWT-22">
          <mxGeometry y="52" width="180" height="58" as="geometry" />
        </mxCell>
        <mxCell id="bWvuNppjGwyr0iCQvfWT-26" value="CartaoDebito" style="swimlane;fontStyle=1;align=center;verticalAlign=top;childLayout=stackLayout;horizontal=1;startSize=26;horizontalStack=0;resizeParent=1;resizeParentMax=0;resizeLast=0;collapsible=1;marginBottom=0;whiteSpace=wrap;html=1;fillColor=#ffe6cc;strokeColor=#d79b00;" vertex="1" parent="1">
          <mxGeometry x="590" y="300" width="200" height="190" as="geometry" />
        </mxCell>
        <mxCell id="bWvuNppjGwyr0iCQvfWT-27" value="- numero: string&lt;br data-darkreader-inline-border=&quot;&quot; style=&quot;border-color: var(--darkreader-border--border-color); text-align: -webkit-center; --darkreader-inline-border: var(--darkreader-border--darkreader-border--border-color);&quot;&gt;&lt;span style=&quot;text-align: -webkit-center;&quot;&gt;- bandeira: string&lt;/span&gt;&lt;br data-darkreader-inline-border=&quot;&quot; style=&quot;border-color: var(--darkreader-border--border-color); text-align: -webkit-center; --darkreader-inline-border: var(--darkreader-border--darkreader-border--border-color);&quot;&gt;&lt;span style=&quot;text-align: -webkit-center;&quot;&gt;- limite: double&lt;/span&gt;" style="text;strokeColor=#d79b00;fillColor=#ffe6cc;align=left;verticalAlign=top;spacingLeft=4;spacingRight=4;overflow=hidden;rotatable=0;points=[[0,0.5],[1,0.5]];portConstraint=eastwest;whiteSpace=wrap;html=1;" vertex="1" parent="bWvuNppjGwyr0iCQvfWT-26">
          <mxGeometry y="26" width="200" height="54" as="geometry" />
        </mxCell>
        <mxCell id="bWvuNppjGwyr0iCQvfWT-29" value="+ getNumero(): string&lt;br data-darkreader-inline-border=&quot;&quot; style=&quot;border-color: var(--darkreader-border--border-color); text-align: -webkit-center; --darkreader-inline-border: var(--darkreader-border--darkreader-border--border-color);&quot;&gt;&lt;span style=&quot;text-align: -webkit-center;&quot;&gt;+ getLimite(): double&lt;/span&gt;&lt;br data-darkreader-inline-border=&quot;&quot; style=&quot;border-color: var(--darkreader-border--border-color); text-align: -webkit-center; --darkreader-inline-border: var(--darkreader-border--darkreader-border--border-color);&quot;&gt;&lt;span style=&quot;text-align: -webkit-center;&quot;&gt;+ setNumero(numero: string): void&lt;/span&gt;&lt;br data-darkreader-inline-border=&quot;&quot; style=&quot;border-color: var(--darkreader-border--border-color); text-align: -webkit-center; --darkreader-inline-border: var(--darkreader-border--darkreader-border--border-color);&quot;&gt;&lt;span style=&quot;text-align: -webkit-center;&quot;&gt;+ setLimite(limite: double): void&lt;/span&gt;&lt;br data-darkreader-inline-border=&quot;&quot; style=&quot;border-color: var(--darkreader-border--border-color); text-align: -webkit-center; --darkreader-inline-border: var(--darkreader-border--darkreader-border--border-color);&quot;&gt;&lt;span style=&quot;text-align: -webkit-center;&quot;&gt;+ verificarSaldo(limite: double): booelan&lt;/span&gt;" style="text;strokeColor=#d79b00;fillColor=#ffe6cc;align=left;verticalAlign=top;spacingLeft=4;spacingRight=4;overflow=hidden;rotatable=0;points=[[0,0.5],[1,0.5]];portConstraint=eastwest;whiteSpace=wrap;html=1;" vertex="1" parent="bWvuNppjGwyr0iCQvfWT-26">
          <mxGeometry y="80" width="200" height="110" as="geometry" />
        </mxCell>
        <mxCell id="bWvuNppjGwyr0iCQvfWT-30" value="1" style="endArrow=open;html=1;endSize=12;startArrow=diamondThin;startSize=14;startFill=0;edgeStyle=orthogonalEdgeStyle;align=left;verticalAlign=bottom;rounded=0;entryX=0.435;entryY=-0.005;entryDx=0;entryDy=0;entryPerimeter=0;exitX=0.25;exitY=1;exitDx=0;exitDy=0;" edge="1" parent="1" source="bWvuNppjGwyr0iCQvfWT-14" target="bWvuNppjGwyr0iCQvfWT-6">
          <mxGeometry x="-1" y="3" relative="1" as="geometry">
            <mxPoint x="40" y="80" as="sourcePoint" />
            <mxPoint x="310" y="80" as="targetPoint" />
          </mxGeometry>
        </mxCell>
        <mxCell id="bWvuNppjGwyr0iCQvfWT-31" value="" style="endArrow=open;endFill=1;endSize=12;html=1;rounded=0;exitX=0.733;exitY=0.988;exitDx=0;exitDy=0;exitPerimeter=0;" edge="1" parent="1" source="bWvuNppjGwyr0iCQvfWT-13">
          <mxGeometry width="160" relative="1" as="geometry">
            <mxPoint x="400" y="50" as="sourcePoint" />
            <mxPoint x="450" y="140" as="targetPoint" />
            <Array as="points" />
          </mxGeometry>
        </mxCell>
        <mxCell id="bWvuNppjGwyr0iCQvfWT-32" value="1" style="endArrow=open;html=1;endSize=12;startArrow=diamondThin;startSize=14;startFill=1;edgeStyle=orthogonalEdgeStyle;align=left;verticalAlign=bottom;rounded=0;" edge="1" parent="1">
          <mxGeometry x="-1" y="3" relative="1" as="geometry">
            <mxPoint x="170" y="-40" as="sourcePoint" />
            <mxPoint x="310" y="-40" as="targetPoint" />
          </mxGeometry>
        </mxCell>
        <mxCell id="bWvuNppjGwyr0iCQvfWT-33" value="" style="endArrow=block;startArrow=block;endFill=1;startFill=1;html=1;rounded=0;exitX=0.673;exitY=-0.009;exitDx=0;exitDy=0;exitPerimeter=0;" edge="1" parent="1" source="bWvuNppjGwyr0iCQvfWT-18">
          <mxGeometry width="160" relative="1" as="geometry">
            <mxPoint x="120" y="220" as="sourcePoint" />
            <mxPoint x="310" y="200" as="targetPoint" />
          </mxGeometry>
        </mxCell>
        <mxCell id="bWvuNppjGwyr0iCQvfWT-36" value="" style="endArrow=block;startArrow=block;endFill=1;startFill=1;html=1;rounded=0;exitX=1.005;exitY=0.25;exitDx=0;exitDy=0;entryX=0.412;entryY=-0.003;entryDx=0;entryDy=0;entryPerimeter=0;exitPerimeter=0;" edge="1" parent="1" source="bWvuNppjGwyr0iCQvfWT-7" target="bWvuNppjGwyr0iCQvfWT-26">
          <mxGeometry width="160" relative="1" as="geometry">
            <mxPoint x="560" y="210" as="sourcePoint" />
            <mxPoint x="720" y="210" as="targetPoint" />
          </mxGeometry>
        </mxCell>
        <mxCell id="bWvuNppjGwyr0iCQvfWT-37" value="" style="endArrow=open;endFill=1;endSize=12;html=1;rounded=0;exitX=0.185;exitY=-0.005;exitDx=0;exitDy=0;exitPerimeter=0;entryX=0;entryY=1;entryDx=0;entryDy=0;" edge="1" parent="1" source="bWvuNppjGwyr0iCQvfWT-18" target="bWvuNppjGwyr0iCQvfWT-10">
          <mxGeometry width="160" relative="1" as="geometry">
            <mxPoint x="70" y="190" as="sourcePoint" />
            <mxPoint x="230" y="190" as="targetPoint" />
          </mxGeometry>
        </mxCell>
        <mxCell id="bWvuNppjGwyr0iCQvfWT-38" value="" style="endArrow=open;endFill=1;endSize=12;html=1;rounded=0;entryX=1;entryY=1;entryDx=0;entryDy=0;exitX=0.881;exitY=-0.001;exitDx=0;exitDy=0;exitPerimeter=0;" edge="1" parent="1" source="bWvuNppjGwyr0iCQvfWT-26" target="bWvuNppjGwyr0iCQvfWT-10">
          <mxGeometry width="160" relative="1" as="geometry">
            <mxPoint x="640" y="150" as="sourcePoint" />
            <mxPoint x="800" y="150" as="targetPoint" />
          </mxGeometry>
        </mxCell>
        <mxCell id="bWvuNppjGwyr0iCQvfWT-39" value="1" style="endArrow=open;html=1;endSize=12;startArrow=diamondThin;startSize=14;startFill=1;edgeStyle=orthogonalEdgeStyle;align=left;verticalAlign=bottom;rounded=0;entryX=0.5;entryY=1;entryDx=0;entryDy=0;exitX=0.139;exitY=0;exitDx=0;exitDy=0;exitPerimeter=0;" edge="1" parent="1" source="bWvuNppjGwyr0iCQvfWT-22" target="bWvuNppjGwyr0iCQvfWT-6">
          <mxGeometry x="-1" y="3" relative="1" as="geometry">
            <mxPoint x="380" y="490" as="sourcePoint" />
            <mxPoint x="540" y="490" as="targetPoint" />
          </mxGeometry>
        </mxCell>
      </root>
    </mxGraphModel>
  </diagram>
</mxfile>
